<?xml version="1.0" standalone="no"?><!DOCTYPE svg PUBLIC "-//W3C//DTD SVG 1.1//EN" "http://www.w3.org/Graphics/SVG/1.1/DTD/svg11.dtd"><svg t="1742207725645" class="icon" viewBox="0 0 1024 1024" version="1.1" xmlns="http://www.w3.org/2000/svg" p-id="3467" xmlns:xlink="http://www.w3.org/1999/xlink" width="200" height="200"><path d="M738.485173 750.770833m-232.335585 0a232.335585 232.335585 0 1 0 464.671169 0 232.335585 232.335585 0 1 0-464.671169 0Z" fill="#DBDBE8" p-id="3468"></path><path d="M738.485173 538.888174c116.82829 0 211.886749 95.050279 211.886748 211.890839 0 56.598288-22.039755 109.810249-62.058127 149.828621s-93.234423 62.058127-149.828621 62.058127c-56.602378 0-109.814339-22.039755-149.828622-62.058127-40.026552-40.022462-62.066307-93.230333-62.066307-149.828621s22.039755-109.806159 62.066307-149.832711c40.022462-40.022462 93.238513-62.058127 149.828622-62.058128z m-252.784421 211.882659c0 67.522056 26.293113 130.999333 74.041145 178.743275 47.748032 47.748032 111.221219 74.041145 178.743276 74.041146 67.526146 0 130.999333-26.293113 178.743275-74.041146 47.752122-47.743942 74.041145-111.221219 74.041145-178.743275 0-139.383356-113.401065-252.784421-252.78851-252.78442-67.522056 0-130.995243 26.289024-178.743275 74.041145-47.743942 47.743942-74.037056 111.221219-74.037056 178.743275zM172.894908 484.670131L67.64066 379.415882a20.448836 20.448836 0 0 0-28.918744 28.918744l105.258338 105.254249a20.448836 20.448836 0 1 0 28.914654-28.918744z" fill="#6E6E96" p-id="3469"></path><path d="M593.547913 905.327225L252.649458 564.428771a20.452926 20.452926 0 0 0-28.918744 0 20.440656 20.440656 0 0 0 0 28.914654l340.898455 340.898454a20.436567 20.436567 0 0 0 28.910564 0 20.432477 20.432477 0 0 0 0.00818-28.914654zM931.186823 587.302838L489.058451 145.158107a20.448836 20.448836 0 0 0-28.918744 28.918744l442.132462 442.136552a20.436567 20.436567 0 0 0 28.910565 0 20.432477 20.432477 0 0 0 0.004089-28.910565zM209.535132 79.954949L156.016439 26.436255a20.448836 20.448836 0 0 0-28.918744 0 20.448836 20.448836 0 0 0 0 28.918744L180.616389 108.877782a20.448836 20.448836 0 0 0 28.918743-28.922833zM529.383555 399.803372L309.726249 180.150155a20.448836 20.448836 0 0 0-28.918744 28.918744l219.653217 219.653216a20.448836 20.448836 0 0 0 28.918744 0 20.440656 20.440656 0 0 0 0.004089-28.918743zM183.781868 289.768185L95.843694 201.830011a20.448836 20.448836 0 0 0-28.918744 28.918744l87.938175 87.938174a20.448836 20.448836 0 1 0 28.918743-28.918744zM431.204604 537.195011L296.250466 402.236783a20.448836 20.448836 0 0 0-28.918744 28.918744l134.954138 134.954138a20.448836 20.448836 0 1 0 28.918744-28.914654z" fill="#6E6E96" p-id="3470"></path><path d="M716.985266 721.083213m-178.109361 0a178.109361 178.109361 0 1 0 356.218723 0 178.109361 178.109361 0 1 0-356.218723 0Z" fill="#F0F0FF" p-id="3471"></path><path d="M784.008371 657.454615m-50.013763 0a50.013763 50.013763 0 1 0 100.027526 0 50.013763 50.013763 0 1 0-100.027526 0Z" fill="#6E6E96" p-id="3472"></path><path d="M698.30321 829.367979m-29.041437 0a29.041437 29.041437 0 1 0 58.082874 0 29.041437 29.041437 0 1 0-58.082874 0Z" fill="#6E6E96" p-id="3473"></path><path d="M620.744865 734.677599m-14.518674 0a14.518674 14.518674 0 1 0 29.037347 0 14.518674 14.518674 0 1 0-29.037347 0Z" fill="#6E6E96" p-id="3474"></path><path d="M816.215288 824.844697m-32.272353 0a32.272353 32.272353 0 1 0 64.544706 0 32.272353 32.272353 0 1 0-64.544706 0Z" fill="#6E6E96" p-id="3475"></path></svg>